<svg width="52" height="52" viewBox="0 0 52 52" fill="none" xmlns="http://www.w3.org/2000/svg">
<path fill-rule="evenodd" clip-rule="evenodd" d="M26.0003 4.33301C27.8776 4.33301 29.5414 5.54184 30.1216 7.32727L33.5267 17.8072H44.5459C46.4232 17.8072 48.0871 19.016 48.6672 20.8014C49.2473 22.5869 48.6118 24.5428 47.093 25.6463L38.1783 32.1232L41.5834 42.6031C42.1635 44.3885 41.528 46.3445 40.0092 47.4479C38.4904 48.5514 36.4338 48.5514 34.9151 47.4479L26.0003 40.971L17.0856 47.4479C15.5668 48.5514 13.5102 48.5514 11.9914 47.4479C10.4727 46.3445 9.83715 44.3885 10.4173 42.6031L13.8224 32.1232L4.90765 25.6463C3.38887 24.5428 2.75336 22.5869 3.33348 20.8014C3.9136 19.016 5.57741 17.8072 7.45472 17.8072H18.474L21.8791 7.32727C22.4592 5.54184 24.123 4.33301 26.0003 4.33301ZM21.6223 22.1405H7.45472L18.9165 30.468L14.5385 43.9422L26.0003 35.6147L37.4621 43.9422L33.0841 30.468L44.5459 22.1405H30.3783L26.0003 8.66634L21.6223 22.1405Z" fill="white"/>
</svg>
